<svg xmlns="http://www.w3.org/2000/svg" xmlns:xlink="http://www.w3.org/1999/xlink" fill="none" version="1.1" width="16" height="16" viewBox="0 0 16 16"><defs><clipPath id="master_svg0_1_5017"><rect x="0" y="0" width="16" height="16" rx="0"/></clipPath></defs><g clip-path="url(#master_svg0_1_5017)"><g><path d="M12.13748046875,5.55748046875L11.43248046875,6.26248046875L12.66748046875,7.49998046875L8.49998046875,7.49998046875L8.49998046875,3.33248046875L9.73748046875,4.56748046875L10.44248046875,3.86248046875L7.99998046875,1.41748046875L5.55748046875,3.86248046875L6.26248046875,4.56748046875L7.49998046875,3.33248046875L7.49998046875,7.49998046875L3.33248046875,7.49998046875L4.56748046875,6.26248046875L3.86248046875,5.55748046875L1.41748046875,7.99998046875L3.86248046875,10.44248046875L4.56748046875,9.73748046875L3.33248046875,8.49998046875L7.49998046875,8.49998046875L7.49998046875,12.66748046875L6.26248046875,11.43248046875L5.55748046875,12.13748046875L7.99998046875,14.58248046875L10.44248046875,12.13748046875L9.73748046875,11.43248046875L8.49998046875,12.66748046875L8.49998046875,8.49998046875L12.66748046875,8.49998046875L11.43248046875,9.73748046875L12.13748046875,10.44248046875L14.58248046875,7.99998046875L12.13748046875,5.55748046875Z" fill="#fff" fill-opacity="1"/></g></g></svg>